<svg width="179" height="179" viewBox="0 0 179 179" fill="none" xmlns="http://www.w3.org/2000/svg">
<g filter="url(#filter0_d)">
<path d="M86.5 144C119.361 144 146 117.361 146 84.5C146 51.6391 119.361 25 86.5 25C53.6391 25 27 51.6391 27 84.5C27 117.361 53.6391 144 86.5 144Z" fill="#793A00"/>
<path d="M86.5 144C119.361 144 146 117.361 146 84.5C146 51.6391 119.361 25 86.5 25C53.6391 25 27 51.6391 27 84.5C27 117.361 53.6391 144 86.5 144Z" fill="url(#paint0_linear)"/>
<path d="M86.5 143C118.809 143 145 116.809 145 84.5C145 52.1913 118.809 26 86.5 26C54.1913 26 28 52.1913 28 84.5C28 116.809 54.1913 143 86.5 143Z" stroke="#C59D64" stroke-width="2"/>
</g>
<mask id="mask0" mask-type="alpha" maskUnits="userSpaceOnUse" x="48" y="46" width="77" height="77">
<path d="M86.5 123C107.763 123 125 105.763 125 84.5C125 63.237 107.763 46 86.5 46C65.237 46 48 63.237 48 84.5C48 105.763 65.237 123 86.5 123Z" fill="#F20B0B"/>
</mask>
<g mask="url(#mask0)">
<g filter="url(#filter1_i)">
<path fill-rule="evenodd" clip-rule="evenodd" d="M89.43 158.624C48.6099 158.624 15.4696 124.936 15.3043 84.1162C15.138 43.0607 48.3708 9 89.4267 9C130.345 9 163.524 42.8421 163.553 83.7601C163.582 124.718 130.388 158.624 89.43 158.624Z" fill="#F7FA83"/>
</g>
<g filter="url(#filter2_i)">
<path fill-rule="evenodd" clip-rule="evenodd" d="M84.0067 87L84.0124 126L90.0124 125.999L90.0067 87H126.5V81H90.0058L90 40.9996L84 41.0004L84.0058 81H47V87H84.0067Z" fill="#793A00"/>
<path fill-rule="evenodd" clip-rule="evenodd" d="M84.0067 87L84.0124 126L90.0124 125.999L90.0067 87H126.5V81H90.0058L90 40.9996L84 41.0004L84.0058 81H47V87H84.0067Z" fill="url(#paint1_linear)"/>
</g>
</g>
<defs>
<filter id="filter0_d" x="0" y="0" width="179" height="179" filterUnits="userSpaceOnUse" color-interpolation-filters="sRGB">
<feFlood flood-opacity="0" result="BackgroundImageFix"/>
<feColorMatrix in="SourceAlpha" type="matrix" values="0 0 0 0 0 0 0 0 0 0 0 0 0 0 0 0 0 0 127 0"/>
<feOffset dx="3" dy="5"/>
<feGaussianBlur stdDeviation="15"/>
<feColorMatrix type="matrix" values="0 0 0 0 0 0 0 0 0 0 0 0 0 0 0 0 0 0 1 0"/>
<feBlend mode="normal" in2="BackgroundImageFix" result="effect1_dropShadow"/>
<feBlend mode="normal" in="SourceGraphic" in2="effect1_dropShadow" result="shape"/>
</filter>
<filter id="filter1_i" x="15.3036" y="9" width="148.249" height="153.624" filterUnits="userSpaceOnUse" color-interpolation-filters="sRGB">
<feFlood flood-opacity="0" result="BackgroundImageFix"/>
<feBlend mode="normal" in="SourceGraphic" in2="BackgroundImageFix" result="shape"/>
<feColorMatrix in="SourceAlpha" type="matrix" values="0 0 0 0 0 0 0 0 0 0 0 0 0 0 0 0 0 0 127 0" result="hardAlpha"/>
<feOffset dy="4"/>
<feGaussianBlur stdDeviation="2"/>
<feComposite in2="hardAlpha" operator="arithmetic" k2="-1" k3="1"/>
<feColorMatrix type="matrix" values="0 0 0 0 0 0 0 0 0 0 0 0 0 0 0 0 0 0 0.25 0"/>
<feBlend mode="normal" in2="shape" result="effect1_innerShadow"/>
</filter>
<filter id="filter2_i" x="47" y="40.9996" width="79.5" height="89.0008" filterUnits="userSpaceOnUse" color-interpolation-filters="sRGB">
<feFlood flood-opacity="0" result="BackgroundImageFix"/>
<feBlend mode="normal" in="SourceGraphic" in2="BackgroundImageFix" result="shape"/>
<feColorMatrix in="SourceAlpha" type="matrix" values="0 0 0 0 0 0 0 0 0 0 0 0 0 0 0 0 0 0 127 0" result="hardAlpha"/>
<feOffset dy="4"/>
<feGaussianBlur stdDeviation="2"/>
<feComposite in2="hardAlpha" operator="arithmetic" k2="-1" k3="1"/>
<feColorMatrix type="matrix" values="0 0 0 0 0 0 0 0 0 0 0 0 0 0 0 0 0 0 0.25 0"/>
<feBlend mode="normal" in2="shape" result="effect1_innerShadow"/>
</filter>
<linearGradient id="paint0_linear" x1="41" y1="25" x2="121" y2="144" gradientUnits="userSpaceOnUse">
<stop stop-color="#FFBB56"/>
<stop offset="1" stop-color="white" stop-opacity="0"/>
</linearGradient>
<linearGradient id="paint1_linear" x1="101" y1="3058.52" x2="-72.6925" y2="3054.73" gradientUnits="userSpaceOnUse">
<stop stop-color="#96612F" stop-opacity="0.29"/>
<stop offset="1" stop-color="#D7A25F"/>
</linearGradient>
</defs>
</svg>
